<svg width="921" height="280" viewBox="0 0 921 280" fill="none" xmlns="http://www.w3.org/2000/svg">
<path d="M359.807 186H382.811V141.073H393.464L418.938 186H447.191L413.38 129.957L445.802 77.9281H417.857L393.618 119.459H382.811V77.9281H359.807V186ZM484.004 188.007C499.752 188.007 515.5 181.214 521.366 162.996L501.296 158.364C498.208 165.158 491.106 168.091 483.696 168.091C473.043 168.091 465.169 161.607 465.015 150.954H523.991V145.241C523.991 121.157 508.398 102.63 483.387 102.63C460.692 102.63 441.856 119.922 441.856 145.396C441.856 169.944 459.148 188.007 484.004 188.007ZM465.169 135.978C466.25 128.722 472.888 121.311 483.387 121.311C492.959 121.311 500.215 127.796 501.296 135.978H465.169ZM530.753 221.509H544.184C558.697 221.509 567.188 216.569 571.357 204.99L607.021 104.637H582.318L565.799 164.386H564.101L547.581 104.637H523.188L550.36 186H554.683L551.132 195.263C549.434 199.586 546.963 200.976 542.641 200.976H530.753V221.509ZM611.726 221.509H634.267V177.663H635.965C639.361 182.603 646.618 188.007 659.123 188.007C680.12 188.007 695.868 169.172 695.868 145.396C695.868 121.002 678.885 102.63 657.888 102.63C646.618 102.63 639.979 107.107 635.965 112.202H634.267V104.637H611.726V221.509ZM653.565 166.701C642.912 166.701 633.958 158.828 633.958 145.241C633.958 133.817 641.677 124.09 653.411 124.09C664.218 124.09 673.018 132.582 673.018 145.241C673.018 158.056 664.527 166.701 653.565 166.701ZM743.828 188.007C769.148 188.007 787.057 169.48 787.057 145.396C787.057 121.311 769.302 102.63 743.828 102.63C718.508 102.63 700.445 121.157 700.445 145.396C700.445 169.48 718.354 188.007 743.828 188.007ZM743.828 166.547C731.786 166.547 723.294 157.438 723.294 145.396C723.294 133.199 731.786 124.09 743.828 124.09C755.87 124.09 764.207 133.199 764.207 145.396C764.207 157.438 755.87 166.547 743.828 166.547ZM795.526 186H818.067V138.448C818.067 129.957 823.625 124.399 830.573 124.399C837.52 124.399 843.078 129.031 843.078 136.75V186H865.464V138.757C865.464 129.648 871.022 124.399 878.124 124.399C885.072 124.399 890.321 129.339 890.321 138.757V186H912.862V131.038C912.862 115.136 900.819 102.63 883.991 102.63C872.875 102.63 865.619 108.188 861.45 114.518H859.752C855.738 107.571 848.945 102.63 838.292 102.63C828.72 102.63 822.544 107.725 819.765 112.048H818.067V104.637H795.526V186Z" fill="#0F172A"/>
<g clip-path="url(#clip0_528_728)">
<path d="M142.544 275.23C147.54 275.336 152.434 273.8 156.473 270.857C159.29 268.809 162.537 267.431 165.967 266.827C169.396 266.223 172.919 266.408 176.266 267.37C180.919 268.707 185.877 268.536 190.427 266.88C194.977 265.225 198.885 262.17 201.591 258.155C203.537 255.266 206.116 252.859 209.133 251.117C212.149 249.375 215.523 248.344 218.998 248.103C223.827 247.77 228.427 245.914 232.136 242.802C235.845 239.69 238.471 235.483 239.638 230.784C240.474 227.409 242.068 224.269 244.299 221.602C246.531 218.935 249.34 216.812 252.515 215.394C256.936 213.435 260.624 210.126 263.049 205.942C265.474 201.758 266.513 196.914 266.016 192.104C265.649 188.64 266.077 185.138 267.269 181.865C268.461 178.592 270.384 175.634 272.892 173.217C276.373 169.855 278.701 165.476 279.54 160.71C280.38 155.944 279.69 151.034 277.568 146.684C276.039 143.555 275.245 140.119 275.245 136.636C275.245 133.154 276.039 129.718 277.568 126.589C279.69 122.239 280.38 117.329 279.54 112.563C278.701 107.796 276.373 103.418 272.892 100.055L270.944 98.195C268.085 95.4326 266.257 91.7757 265.762 87.831C265.762 87.831 259.538 32.3097 255.048 17.1728C251.853 6.37046 240.349 3.53595 229.673 7.13023C225.719 8.41598 216.475 12.8772 210.757 15.5851C196.146 22.608 186.532 29.1634 179.198 22.9295C175.703 19.5325 171.229 17.3202 166.408 16.6052C161.587 15.8903 156.663 16.709 152.333 18.9456C149.266 20.5119 145.889 21.3738 142.446 21.4684C139.052 21.3649 135.724 20.5029 132.706 18.9456C128.377 16.7083 123.455 15.8893 118.636 16.6042C113.816 17.3192 109.343 19.532 105.851 22.9295C98.4676 29.1634 88.8731 22.6178 74.2622 15.5851C68.5543 12.8772 59.2715 8.41598 55.3168 7.09126C44.6021 3.50672 33.1277 6.3315 29.9328 17.1338C25.4521 32.2902 19.2182 87.7921 19.2182 87.7921C18.7282 91.7381 16.899 95.3965 14.0362 98.1561L12.088 100.017C8.60317 103.377 6.27326 107.755 5.43318 112.522C4.5931 117.29 5.28609 122.201 7.41256 126.55C8.94104 129.679 9.73552 133.115 9.73552 136.597C9.73552 140.08 8.94104 143.516 7.41256 146.645C5.28609 150.994 4.5931 155.905 5.43318 160.672C6.27326 165.44 8.60317 169.818 12.088 173.178C14.6036 175.599 16.5326 178.562 17.7278 181.843C18.9231 185.123 19.3529 188.633 18.9844 192.104C18.4742 196.916 19.5022 201.766 21.9208 205.958C24.3395 210.149 28.0242 213.466 32.4459 215.433C35.6288 216.846 38.4475 218.967 40.6873 221.634C42.9272 224.301 44.5293 227.444 45.3717 230.823C46.5367 235.521 49.1614 239.728 52.8684 242.84C56.5754 245.952 61.1737 247.808 66.0022 248.142C69.477 248.383 72.851 249.414 75.8673 251.156C78.8836 252.898 81.4628 255.305 83.4087 258.194C86.1157 262.208 90.0243 265.262 94.574 266.917C99.1237 268.572 104.081 268.744 108.734 267.409C112.081 266.447 115.604 266.262 119.033 266.866C122.463 267.47 125.71 268.848 128.527 270.896C132.605 273.823 137.525 275.345 142.544 275.23Z" fill="url(#paint0_radial_528_728)"/>
<path d="M143.021 279.769H142.544C136.443 279.872 130.473 277.995 125.527 274.422C123.34 272.819 120.814 271.74 118.144 271.269C115.474 270.798 112.731 270.947 110.127 271.704C104.443 273.35 98.3827 273.146 92.8219 271.122C87.2611 269.098 82.4876 265.358 79.1911 260.444C77.682 258.195 75.6763 256.322 73.3288 254.971C70.9812 253.62 68.3546 252.826 65.6517 252.652C59.7469 252.253 54.1216 249.988 49.5885 246.184C45.0555 242.379 41.8493 237.231 40.4333 231.485C39.7919 228.857 38.5568 226.41 36.8226 224.333C35.0885 222.256 32.9016 220.604 30.4297 219.504C25.0173 217.111 20.5058 213.06 17.5468 207.935C14.5879 202.81 13.3346 196.877 13.9681 190.994C14.2594 188.299 13.9288 185.574 13.0017 183.028C12.0747 180.481 10.5758 178.181 8.62047 176.305C4.35191 172.205 1.4975 166.854 0.469709 161.025C-0.558086 155.196 0.293967 149.191 2.90274 143.878C4.09919 141.446 4.72138 138.772 4.72138 136.062C4.72138 133.351 4.09919 130.677 2.90274 128.245C0.288008 122.937 -0.571961 116.935 0.447034 111.107C1.46603 105.278 4.31124 99.9242 8.57177 95.8182L10.5199 93.9578C12.5419 92.0012 13.8371 89.4143 14.1921 86.6231C14.4356 84.412 20.5137 30.566 25.0723 15.1564C25.8141 12.4824 27.0991 9.99004 28.8471 7.83481C30.5951 5.67959 32.7685 3.90779 35.2318 2.62999C41.3099 -0.535702 49.2193 -0.857142 56.9338 1.72412C60.8885 3.05858 69.0803 6.93533 76.415 10.4907C78.6456 11.5621 80.7593 12.6141 82.7659 13.6271C94.0357 19.2669 99.0229 21.3222 102.364 18.6435C106.631 14.5565 112.064 11.8993 117.91 11.0405C123.755 10.1817 129.723 11.164 134.985 13.8512C137.302 15.0333 139.848 15.6981 142.446 15.7993C145.081 15.7082 147.664 15.0434 150.015 13.8512C155.268 11.1612 161.228 10.1709 167.069 11.0173C172.91 11.8637 178.343 14.5049 182.617 18.5753C185.948 21.254 190.945 19.1987 202.215 13.5589C204.221 12.5849 206.335 11.4939 208.556 10.4225C215.92 6.89637 224.141 3.01961 228.037 1.65593C235.752 -0.925326 243.671 -0.603886 249.749 2.56181C252.216 3.83751 254.393 5.60838 256.144 7.76372C257.896 9.91905 259.184 12.4125 259.928 15.0882C264.486 30.4978 270.555 84.3438 270.808 86.6231C271.171 89.3901 272.462 91.9521 274.471 93.8896L276.419 95.7501C280.687 99.8502 283.542 105.201 284.569 111.03C285.597 116.859 284.745 122.864 282.136 128.177C280.94 130.609 280.318 133.283 280.318 135.993C280.318 138.704 280.94 141.378 282.136 143.81C284.745 149.123 285.597 155.128 284.569 160.956C283.542 166.785 280.687 172.136 276.419 176.237C274.463 178.113 272.965 180.413 272.04 182.96C271.114 185.506 270.786 188.232 271.081 190.925C271.714 196.81 270.459 202.744 267.498 207.869C264.537 212.994 260.024 217.045 254.609 219.436C252.131 220.532 249.936 222.182 248.195 224.259C246.454 226.336 245.213 228.785 244.567 231.417C243.148 237.163 239.939 242.31 235.405 246.115C230.87 249.919 225.244 252.184 219.339 252.583C216.637 252.758 214.012 253.552 211.666 254.903C209.32 256.254 207.316 258.127 205.809 260.376C202.509 265.289 197.733 269.027 192.172 271.05C186.61 273.074 180.549 273.279 174.863 271.636C172.261 270.878 169.52 270.73 166.851 271.201C164.183 271.672 161.658 272.751 159.473 274.354C154.707 277.867 148.942 279.764 143.021 279.769V279.769ZM142.544 269.59H142.651C146.537 269.666 150.341 268.469 153.483 266.181C156.921 263.667 160.89 261.975 165.084 261.236C169.279 260.496 173.587 260.728 177.678 261.915C181.295 262.961 185.15 262.832 188.688 261.545C192.227 260.258 195.265 257.881 197.364 254.756C199.732 251.215 202.882 248.267 206.57 246.137C210.259 244.007 214.387 242.754 218.637 242.473C222.392 242.217 225.969 240.777 228.853 238.36C231.738 235.943 233.781 232.673 234.69 229.021C235.706 224.885 237.658 221.038 240.396 217.775C243.133 214.512 246.583 211.921 250.479 210.202C253.915 208.681 256.78 206.11 258.661 202.858C260.543 199.606 261.344 195.84 260.951 192.104C260.49 187.868 261.009 183.582 262.466 179.578C263.923 175.574 266.281 171.958 269.357 169.009C272.075 166.394 273.891 162.981 274.541 159.265C275.191 155.549 274.641 151.722 272.97 148.34C271.091 144.518 270.114 140.316 270.114 136.057C270.114 131.798 271.091 127.596 272.97 123.774C274.629 120.394 275.171 116.574 274.518 112.866C273.865 109.158 272.051 105.753 269.337 103.143L267.389 101.283C263.708 97.7021 261.355 92.9753 260.717 87.8797C260.649 87.2563 254.483 32.5823 250.177 18.0201C249.817 16.6587 249.176 15.3877 248.296 14.2889C247.415 13.1901 246.314 12.2878 245.064 11.64C241.479 9.77959 236.297 9.69192 231.3 11.3576C227.599 12.6044 218.082 17.2019 212.959 19.6273C210.786 20.6696 208.683 21.7216 206.734 22.6956C194.89 28.6276 184.662 33.7512 175.857 26.2704L175.565 25.9977C172.83 23.365 169.34 21.6544 165.584 21.1059C161.829 20.5573 157.995 21.1984 154.622 22.9391C150.88 24.8461 146.762 25.9006 142.563 26.0269H142.261C138.092 25.8968 134.003 24.8421 130.29 22.9391C126.917 21.1984 123.084 20.5573 119.328 21.1059C115.572 21.6544 112.082 23.365 109.348 25.9977L109.056 26.2704C100.289 33.7512 90.0324 28.6276 78.1878 22.6956C76.2397 21.7216 74.1649 20.6891 71.9928 19.6468C66.879 17.1922 57.3819 12.6238 53.6512 11.377C48.6251 9.69192 43.4723 9.79907 39.8878 11.6595C38.6457 12.313 37.5532 13.2176 36.6795 14.316C35.8059 15.4143 35.1702 16.6824 34.8129 18.0396C30.5076 32.6018 24.3418 87.2757 24.2833 87.8797C23.6416 92.9965 21.2743 97.7415 17.5721 101.331L15.624 103.192C12.9076 105.8 11.0908 109.204 10.4359 112.913C9.78108 116.621 10.3222 120.442 11.981 123.822C13.8651 127.643 14.845 131.846 14.845 136.105C14.845 140.365 13.8651 144.568 11.981 148.388C10.3214 151.77 9.77988 155.593 10.4347 159.303C11.0895 163.013 12.9068 166.419 15.624 169.029C18.7011 171.973 21.0604 175.585 22.5197 179.586C23.9789 183.587 24.499 187.87 24.0398 192.104C23.6469 195.842 24.4499 199.607 26.3333 202.86C28.2167 206.112 31.0833 208.683 34.5207 210.202C38.4163 211.923 41.8653 214.514 44.6026 217.776C47.3399 221.039 49.2925 224.886 50.3102 229.021C51.2105 232.677 53.2498 235.953 56.1335 238.374C59.0172 240.796 62.596 242.238 66.353 242.492C70.6041 242.774 74.7337 244.028 78.4237 246.157C82.1137 248.287 85.2655 251.235 87.6362 254.775C89.7325 257.904 92.7702 260.284 96.3094 261.571C99.8485 262.858 103.706 262.985 107.322 261.934C111.411 260.748 115.718 260.516 119.911 261.255C124.104 261.995 128.071 263.687 131.508 266.201C134.692 268.485 138.528 269.68 142.446 269.61L142.544 269.59Z" fill="#0F172A"/>
<path fill-rule="evenodd" clip-rule="evenodd" d="M208.682 124.777C208.195 125.257 207.558 125.556 206.878 125.623C206.197 125.691 205.514 125.523 204.942 125.147C195.558 119.055 185.377 114.288 174.688 110.984C174.013 110.771 173.435 110.327 173.054 109.731C172.673 109.135 172.513 108.423 172.603 107.721C173.061 104.181 174.302 100.786 176.237 97.786C182.996 87.2856 196.468 83.9251 206.325 90.2857C216.183 96.6463 218.676 110.273 211.916 120.774C210.998 122.229 209.912 123.573 208.682 124.777ZM197.841 100.854C197.841 102.071 197.481 103.26 196.806 104.271C196.13 105.283 195.171 106.072 194.048 106.539C192.924 107.006 191.688 107.129 190.495 106.894C189.301 106.659 188.205 106.075 187.342 105.217C186.48 104.359 185.892 103.265 185.651 102.073C185.41 100.881 185.528 99.644 185.989 98.5186C186.451 97.3932 187.235 96.4298 188.244 95.7498C189.252 95.0699 190.44 94.704 191.656 94.6982C193.289 94.6982 194.854 95.3468 196.009 96.5013C197.163 97.6557 197.812 99.2216 197.812 100.854H197.841ZM210.786 104.371C210.788 104.975 210.611 105.567 210.277 106.07C209.943 106.574 209.467 106.968 208.91 107.201C208.352 107.435 207.738 107.498 207.144 107.383C206.551 107.267 206.005 106.979 205.575 106.553C205.146 106.128 204.852 105.585 204.731 104.992C204.61 104.4 204.667 103.785 204.896 103.226C205.124 102.666 205.513 102.186 206.013 101.847C206.514 101.509 207.104 101.326 207.708 101.322C208.517 101.322 209.292 101.643 209.864 102.215C210.436 102.787 210.757 103.562 210.757 104.371H210.786Z" fill="url(#paint1_linear_528_728)"/>
<path fill-rule="evenodd" clip-rule="evenodd" d="M77.2527 124.777C77.7382 125.257 78.3735 125.555 79.0525 125.622C79.7315 125.69 80.413 125.522 80.9833 125.147C90.3807 119.054 100.575 114.288 111.277 110.984C111.951 110.771 112.53 110.327 112.911 109.731C113.292 109.135 113.451 108.423 113.361 107.721C112.904 104.181 111.662 100.786 109.728 97.786C102.958 87.2856 89.4966 83.9251 79.6391 90.2857C69.7816 96.6463 67.2588 110.283 74.0188 120.774C74.9342 122.232 76.0198 123.576 77.2527 124.777ZM88.0842 100.854C88.0823 102.074 88.4422 103.267 89.1186 104.282C89.7949 105.298 90.7572 106.089 91.8837 106.558C93.0102 107.026 94.2502 107.149 95.4469 106.912C96.6436 106.676 97.7431 106.089 98.6064 105.227C99.4697 104.365 100.058 103.267 100.297 102.07C100.535 100.874 100.414 99.6339 99.9474 98.5067C99.481 97.3795 98.6907 96.4159 97.6765 95.738C96.6624 95.0601 95.4699 94.6982 94.25 94.6982C93.4407 94.6969 92.6392 94.8552 91.8912 95.164C91.1432 95.4728 90.4634 95.926 89.8907 96.4978C89.318 97.0696 88.8637 97.7486 88.5537 98.4962C88.2438 99.2437 88.0842 100.045 88.0842 100.854V100.854ZM81.4606 101.322C81.4606 101.927 81.2812 102.518 80.9451 103.021C80.6091 103.524 80.1314 103.916 79.5725 104.148C79.0136 104.379 78.3987 104.44 77.8054 104.322C77.2121 104.204 76.6671 103.912 76.2393 103.485C75.8116 103.057 75.5203 102.512 75.4023 101.918C75.2843 101.325 75.3448 100.71 75.5763 100.151C75.8078 99.5925 76.1998 99.1148 76.7028 98.7787C77.2058 98.4426 77.7971 98.2632 78.4021 98.2632C78.8041 98.262 79.2024 98.3402 79.574 98.4934C79.9457 98.6467 80.2834 98.8719 80.5676 99.1562C80.8519 99.4405 81.0771 99.7781 81.2304 100.15C81.3837 100.521 81.4619 100.92 81.4606 101.322V101.322Z" fill="url(#paint2_linear_528_728)"/>
<path fill-rule="evenodd" clip-rule="evenodd" d="M77.2527 124.777C77.7382 125.257 78.3735 125.555 79.0525 125.622C79.7315 125.69 80.413 125.522 80.9833 125.147C90.3807 119.054 100.575 114.288 111.277 110.984C111.951 110.771 112.53 110.327 112.911 109.731C113.292 109.135 113.451 108.423 113.361 107.721C112.904 104.181 111.662 100.786 109.728 97.786C102.958 87.2856 89.4966 83.9251 79.6391 90.2857C69.7816 96.6463 67.2588 110.283 74.0188 120.774C74.9342 122.232 76.0198 123.576 77.2527 124.777ZM88.0842 100.854C88.0823 102.074 88.4422 103.267 89.1186 104.282C89.7949 105.298 90.7572 106.089 91.8837 106.558C93.0102 107.026 94.2502 107.149 95.4469 106.912C96.6436 106.676 97.7431 106.089 98.6064 105.227C99.4697 104.365 100.058 103.267 100.297 102.07C100.535 100.874 100.414 99.6339 99.9474 98.5067C99.481 97.3795 98.6907 96.4159 97.6765 95.738C96.6624 95.0601 95.4699 94.6982 94.25 94.6982C93.4407 94.6969 92.6392 94.8552 91.8912 95.164C91.1432 95.4728 90.4634 95.926 89.8907 96.4978C89.318 97.0696 88.8637 97.7486 88.5537 98.4962C88.2438 99.2437 88.0842 100.045 88.0842 100.854V100.854ZM81.4606 101.322C81.4606 101.927 81.2812 102.518 80.9451 103.021C80.6091 103.524 80.1314 103.916 79.5725 104.148C79.0136 104.379 78.3987 104.44 77.8054 104.322C77.2121 104.204 76.6671 103.912 76.2393 103.485C75.8116 103.057 75.5203 102.512 75.4023 101.918C75.2843 101.325 75.3448 100.71 75.5763 100.151C75.8078 99.5925 76.1998 99.1148 76.7028 98.7787C77.2058 98.4426 77.7971 98.2632 78.4021 98.2632C78.8041 98.262 79.2024 98.3402 79.574 98.4934C79.9457 98.6467 80.2834 98.8719 80.5676 99.1562C80.8519 99.4405 81.0771 99.7781 81.2304 100.15C81.3837 100.521 81.4619 100.92 81.4606 101.322V101.322Z" fill="url(#paint3_linear_528_728)"/>
<path d="M195.309 162.171C195.232 161.954 195.107 161.756 194.945 161.592C194.782 161.428 194.585 161.303 194.368 161.224C194.151 161.146 193.919 161.117 193.689 161.139C193.459 161.162 193.237 161.235 193.039 161.353C185.584 164.507 177.623 166.298 169.535 166.642C162.622 166.653 155.936 164.178 150.697 159.668C147.999 157.359 147.726 151.272 149.927 148.496L160.593 134.323C161.86 132.704 162.647 130.762 162.863 128.718C163.08 126.674 162.717 124.61 161.818 122.762C160.918 120.914 159.517 119.356 157.775 118.266C156.032 117.175 154.018 116.596 151.963 116.595H133.933C131.878 116.596 129.864 117.175 128.122 118.266C126.379 119.356 124.978 120.914 124.079 122.762C123.179 124.61 122.817 126.674 123.033 128.718C123.25 130.762 124.036 132.704 125.303 134.323L136.018 148.496C138.209 151.272 137.966 157.359 135.248 159.668C130.008 164.177 123.322 166.652 116.41 166.642C108.322 166.299 100.361 164.508 92.9058 161.353C92.7077 161.235 92.4857 161.162 92.2559 161.139C92.0261 161.117 91.7943 161.146 91.5771 161.224C91.3599 161.303 91.1629 161.428 91.0002 161.592C90.8374 161.756 90.7131 161.954 90.6362 162.171C89.0388 168.668 99.1982 180.026 104.078 186.396C105.851 206.355 122.585 227.482 143.041 227.482C163.496 227.482 180.172 206.355 181.945 186.396C186.747 180.026 196.896 168.668 195.309 162.171Z" fill="url(#paint4_linear_528_728)"/>
<path d="M195.309 162.171C195.232 161.954 195.107 161.756 194.945 161.592C194.782 161.428 194.585 161.303 194.368 161.224C194.151 161.146 193.919 161.117 193.689 161.139C193.459 161.162 193.237 161.235 193.039 161.353C185.584 164.507 177.623 166.298 169.535 166.642C162.622 166.653 155.936 164.178 150.697 159.668C147.999 157.359 147.726 151.272 149.927 148.496L160.593 134.323C161.86 132.704 162.647 130.762 162.863 128.718C163.08 126.674 162.717 124.61 161.818 122.762C160.918 120.914 159.517 119.356 157.775 118.266C156.032 117.175 154.018 116.596 151.963 116.595H133.933C131.878 116.596 129.864 117.175 128.122 118.266C126.379 119.356 124.978 120.914 124.079 122.762C123.179 124.61 122.817 126.674 123.033 128.718C123.25 130.762 124.036 132.704 125.303 134.323L136.018 148.496C138.209 151.272 137.966 157.359 135.248 159.668C130.008 164.177 123.322 166.652 116.41 166.642C108.322 166.299 100.361 164.508 92.9058 161.353C92.7077 161.235 92.4857 161.162 92.2559 161.139C92.0261 161.117 91.7943 161.146 91.5771 161.224C91.3599 161.303 91.1629 161.428 91.0002 161.592C90.8374 161.756 90.7131 161.954 90.6362 162.171C89.0388 168.668 99.1982 180.026 104.078 186.396C105.851 206.355 122.585 227.482 143.041 227.482C163.496 227.482 180.172 206.355 181.945 186.396C186.747 180.026 196.896 168.668 195.309 162.171Z" fill="url(#paint5_linear_528_728)"/>
<path d="M120.043 189.367C120.043 201.932 129.706 212.871 142.232 213.212C145.297 213.307 148.35 212.786 151.21 211.679C154.069 210.572 156.678 208.902 158.88 206.768C161.082 204.634 162.833 202.08 164.029 199.256C165.225 196.433 165.842 193.398 165.843 190.331V189.357C165.83 186.524 164.696 183.811 162.688 181.812C160.68 179.813 157.962 178.691 155.129 178.691H130.699C127.866 178.691 125.148 179.813 123.14 181.812C121.132 183.811 119.997 186.524 119.985 189.357L120.043 189.367Z" fill="url(#paint6_linear_528_728)"/>
</g>
<defs>
<radialGradient id="paint0_radial_528_728" cx="0" cy="0" r="1" gradientUnits="userSpaceOnUse" gradientTransform="translate(143.565 98.6002) rotate(90.1602) scale(181.156 187.001)">
<stop offset="0.56" stop-color="white"/>
<stop offset="1" stop-color="#CAF3FF"/>
</radialGradient>
<linearGradient id="paint1_linear_528_728" x1="194.12" y1="87.0713" x2="194.12" y2="125.634" gradientUnits="userSpaceOnUse">
<stop stop-color="#0F172A"/>
<stop offset="1" stop-color="#334155"/>
</linearGradient>
<linearGradient id="paint2_linear_528_728" x1="91.7856" y1="87.0713" x2="91.7856" y2="125.634" gradientUnits="userSpaceOnUse">
<stop stop-color="#0F172A"/>
<stop offset="1" stop-color="#1E293B"/>
</linearGradient>
<linearGradient id="paint3_linear_528_728" x1="91.7782" y1="87.0713" x2="91.7782" y2="125.633" gradientUnits="userSpaceOnUse">
<stop stop-color="#0F172A"/>
<stop offset="1" stop-color="#334155"/>
</linearGradient>
<linearGradient id="paint4_linear_528_728" x1="142.953" y1="116.595" x2="142.953" y2="227.482" gradientUnits="userSpaceOnUse">
<stop stop-color="#0F172A"/>
<stop offset="1" stop-color="#1E293B"/>
</linearGradient>
<linearGradient id="paint5_linear_528_728" x1="142.903" y1="116.606" x2="142.903" y2="227.472" gradientUnits="userSpaceOnUse">
<stop stop-color="#0F172A"/>
<stop offset="1" stop-color="#334155"/>
</linearGradient>
<linearGradient id="paint6_linear_528_728" x1="142.904" y1="178.701" x2="143.148" y2="234.69" gradientUnits="userSpaceOnUse">
<stop stop-color="#FFA9DC"/>
<stop offset="1" stop-color="#FFE8F4"/>
</linearGradient>
<clipPath id="clip0_528_728">
<rect width="285" height="279.799" fill="white"/>
</clipPath>
</defs>
</svg>
